<?xml version="1.0" encoding="UTF-8"?>
<svg xmlns="http://www.w3.org/2000/svg" viewBox="0 0 700 200">
  <path d="M 8.213 73 C 8.213 42.859 8.213 27.789 17.33 18.227 C 17.691 17.848 18.061 17.478 18.44 17.117 C 28.002 8 43.072 8 73.213 8 L 99.213 8 C 129.354 8 144.424 8 153.986 17.117 C 154.365 17.478 154.735 17.848 155.096 18.227 C 164.213 27.789 164.213 42.859 164.213 73 C 164.213 103.141 164.213 118.211 155.096 127.773 C 154.735 128.152 154.365 128.522 153.986 128.883 C 144.424 138 129.354 138 99.213 138 L 73.213 138 C 43.072 138 28.002 138 18.44 128.883 C 18.061 128.522 17.691 128.152 17.33 127.773 C 8.213 118.211 8.213 103.141 8.213 73 Z" fill="#06D889"></path>
  <path d="M 113.138 121.39 C 107.418 121.39 102.695 120.22 98.968 117.88 C 95.328 115.54 92.555 112.333 90.648 108.26 C 88.742 104.187 87.615 99.507 87.268 94.22 C 87.268 93.007 87.658 92.053 88.438 91.36 C 89.132 90.667 89.955 90.32 90.908 90.32 L 101.828 91.36 C 103.648 91.707 104.732 92.79 105.078 94.61 C 105.252 97.037 105.902 99.203 107.028 101.11 C 108.242 102.93 110.278 103.84 113.138 103.84 C 115.912 103.84 117.948 102.757 119.248 100.59 C 120.635 98.423 121.328 95.867 121.328 92.92 C 121.328 89.54 120.072 86.983 117.558 85.25 C 115.045 83.43 111.968 81.74 108.328 80.18 C 105.035 78.793 101.785 77.103 98.578 75.11 C 95.372 73.03 92.642 70.257 90.388 66.79 C 88.222 63.323 87.138 58.6 87.138 52.62 C 87.138 45.167 89.565 39.013 94.418 34.16 C 99.272 29.22 105.512 26.75 113.138 26.75 C 119.985 26.923 125.662 29.177 130.168 33.51 C 134.675 37.757 137.362 43.26 138.228 50.02 L 138.228 50.54 C 138.228 51.32 137.968 52.057 137.448 52.75 C 136.755 53.617 135.888 54.05 134.848 54.05 L 123.928 54.83 C 122.195 54.83 121.025 53.877 120.418 51.97 C 119.985 49.89 119.162 48.113 117.948 46.64 C 116.735 45.167 115.132 44.43 113.138 44.43 C 107.678 44.43 104.905 47.16 104.818 52.62 C 104.818 55.913 106.075 58.47 108.588 60.29 C 111.102 62.023 114.135 63.627 117.688 65.1 C 120.982 66.573 124.232 68.35 127.438 70.43 C 130.732 72.423 133.462 75.197 135.628 78.75 C 137.882 82.217 139.008 86.94 139.008 92.92 C 139.008 98.813 137.752 103.883 135.238 108.13 C 132.725 112.377 129.475 115.67 125.488 118.01 C 121.588 120.263 117.472 121.39 113.138 121.39 Z" fill="white"></path>
  <path d="M 45.383 120.87 L 34.723 120.87 C 33.77 120.87 32.946 120.523 32.253 119.83 C 31.56 119.137 31.213 118.27 31.213 117.23 L 31.213 30.91 C 31.213 29.87 31.56 29.003 32.253 28.31 C 32.946 27.617 33.77 27.27 34.723 27.27 L 57.993 27.27 C 64.58 27.27 70.213 29.61 74.893 34.29 C 79.573 38.97 81.913 44.603 81.913 51.19 L 81.913 68.35 C 81.913 74.937 79.573 80.57 74.893 85.25 C 70.213 89.93 64.58 92.27 57.993 92.27 L 48.893 92.27 L 48.893 117.23 C 48.893 118.27 48.546 119.137 47.853 119.83 C 47.16 120.523 46.336 120.87 45.383 120.87 Z M 57.993 74.46 C 59.726 74.46 61.2 73.853 62.413 72.64 C 63.626 71.427 64.233 69.997 64.233 68.35 L 64.233 51.19 C 64.233 49.543 63.626 48.113 62.413 46.9 C 61.2 45.687 59.726 45.08 57.993 45.08 L 48.893 45.08 L 48.893 74.46 L 57.993 74.46 Z" fill="white"></path>
  <path d="M 661.806 120.87 L 626.446 120.87 C 625.493 120.87 624.67 120.523 623.976 119.83 C 623.283 119.137 622.936 118.27 622.936 117.23 L 622.936 30.91 C 622.936 29.87 623.283 29.003 623.976 28.31 C 624.67 27.617 625.493 27.27 626.446 27.27 L 661.806 27.27 C 662.76 27.27 663.583 27.617 664.276 28.31 C 665.056 29.003 665.446 29.87 665.446 30.91 L 665.446 41.44 C 665.446 42.48 665.056 43.347 664.276 44.04 C 663.583 44.733 662.76 45.08 661.806 45.08 L 640.616 45.08 L 640.616 71.86 L 654.136 71.86 C 655.176 71.86 656.043 72.207 656.736 72.9 C 657.43 73.593 657.776 74.417 657.776 75.37 L 657.776 86.03 C 657.776 86.983 657.43 87.807 656.736 88.5 C 656.043 89.193 655.176 89.54 654.136 89.54 L 640.616 89.54 L 640.616 103.06 L 661.806 103.06 C 662.76 103.06 663.583 103.407 664.276 104.1 C 665.056 104.793 665.446 105.66 665.446 106.7 L 665.446 117.23 C 665.446 118.27 665.1 119.137 664.406 119.83 C 663.713 120.437 662.846 120.783 661.806 120.87 Z" fill="white"></path>
  <path d="M 581.181 120.87 L 570.521 120.87 C 569.568 120.87 568.744 120.523 568.051 119.83 C 567.358 119.137 567.011 118.27 567.011 117.23 L 567.011 30.91 C 567.011 29.87 567.358 29.003 568.051 28.31 C 568.744 27.617 569.568 27.27 570.521 27.27 L 593.791 27.27 C 600.378 27.27 606.011 29.61 610.691 34.29 C 615.371 38.97 617.711 44.603 617.711 51.19 L 617.711 68.35 C 617.711 74.937 615.371 80.57 610.691 85.25 C 606.011 89.93 600.378 92.27 593.791 92.27 L 584.691 92.27 L 584.691 117.23 C 584.691 118.27 584.344 119.137 583.651 119.83 C 582.958 120.523 582.134 120.87 581.181 120.87 Z M 593.791 74.46 C 595.524 74.46 596.998 73.853 598.211 72.64 C 599.424 71.427 600.031 69.997 600.031 68.35 L 600.031 51.19 C 600.031 49.543 599.424 48.113 598.211 46.9 C 596.998 45.687 595.524 45.08 593.791 45.08 L 584.691 45.08 L 584.691 74.46 L 593.791 74.46 Z" fill="white"></path>
  <path d="M 536.064 121.39 C 528.957 121.39 522.891 118.877 517.864 113.85 C 512.837 108.737 510.324 102.627 510.324 95.52 L 510.324 52.62 C 510.324 45.513 512.837 39.447 517.864 34.42 C 522.891 29.307 528.957 26.75 536.064 26.75 C 543.171 26.75 549.237 29.307 554.264 34.42 C 559.291 39.447 561.804 45.513 561.804 52.62 L 561.804 95.52 C 561.804 102.627 559.291 108.737 554.264 113.85 C 549.237 118.877 543.171 121.39 536.064 121.39 Z M 536.064 103.45 C 538.231 103.45 540.094 102.67 541.654 101.11 C 543.214 99.55 543.994 97.687 543.994 95.52 L 543.994 52.62 C 543.994 50.453 543.214 48.59 541.654 47.03 C 540.094 45.47 538.231 44.69 536.064 44.69 C 533.897 44.69 531.991 45.47 530.344 47.03 C 528.784 48.59 528.004 50.453 528.004 52.62 L 528.004 95.52 C 528.004 97.687 528.784 99.55 530.344 101.11 C 531.991 102.67 533.897 103.45 536.064 103.45 Z" fill="white"></path>
  <path d="M 481.052 120.87 L 478.192 120.87 C 471.605 120.87 465.972 118.53 461.292 113.85 C 456.612 109.17 454.272 103.537 454.272 96.95 L 454.272 51.19 C 454.272 44.603 456.612 38.97 461.292 34.29 C 464.065 31.517 466.968 29.653 470.002 28.7 C 473.035 27.747 476.718 27.27 481.052 27.27 C 487.638 27.27 493.272 29.61 497.952 34.29 C 502.632 38.97 504.972 44.603 504.972 51.19 C 504.972 52.317 504.668 53.313 504.062 54.18 C 503.542 54.96 502.675 55.35 501.462 55.35 L 490.802 55.35 C 489.848 55.35 489.025 55.003 488.332 54.31 C 487.638 53.617 487.292 52.75 487.292 51.71 C 487.292 49.89 486.728 48.33 485.602 47.03 C 484.562 45.73 483.045 45.08 481.052 45.08 L 478.192 45.08 C 476.545 45.08 475.115 45.687 473.902 46.9 C 472.688 48.113 472.082 49.543 472.082 51.19 L 472.082 96.95 C 472.082 98.597 472.688 100.027 473.902 101.24 C 475.115 102.453 476.545 103.06 478.192 103.06 L 481.052 103.06 C 482.785 103.06 484.258 102.453 485.472 101.24 C 486.425 100.027 487.032 98.597 487.292 96.95 C 487.552 95.823 487.898 94.87 488.332 94.09 C 488.765 93.223 489.588 92.79 490.802 92.79 L 501.462 92.79 C 502.415 92.79 503.282 93.137 504.062 93.83 C 504.755 94.523 505.102 95.39 505.102 96.43 L 504.972 97.86 C 504.625 104.447 502.155 109.95 497.562 114.37 C 492.968 118.703 487.465 120.87 481.052 120.87 Z" fill="white"></path>
  <path d="M 423.204 121.39 C 417.484 121.39 412.76 120.22 409.034 117.88 C 405.394 115.54 402.62 112.333 400.714 108.26 C 398.807 104.187 397.68 99.507 397.334 94.22 C 397.334 93.007 397.724 92.053 398.504 91.36 C 399.197 90.667 400.02 90.32 400.974 90.32 L 411.894 91.36 C 413.714 91.707 414.797 92.79 415.144 94.61 C 415.317 97.037 415.967 99.203 417.094 101.11 C 418.307 102.93 420.344 103.84 423.204 103.84 C 425.977 103.84 428.014 102.757 429.314 100.59 C 430.7 98.423 431.394 95.867 431.394 92.92 C 431.394 89.54 430.137 86.983 427.624 85.25 C 425.11 83.43 422.034 81.74 418.394 80.18 C 415.1 78.793 411.85 77.103 408.644 75.11 C 405.437 73.03 402.707 70.257 400.454 66.79 C 398.287 63.323 397.204 58.6 397.204 52.62 C 397.204 45.167 399.63 39.013 404.484 34.16 C 409.337 29.22 415.577 26.75 423.204 26.75 C 430.05 26.923 435.727 29.177 440.234 33.51 C 444.74 37.757 447.427 43.26 448.294 50.02 L 448.294 50.54 C 448.294 51.32 448.034 52.057 447.514 52.75 C 446.82 53.617 445.954 54.05 444.914 54.05 L 433.994 54.83 C 432.26 54.83 431.09 53.877 430.484 51.97 C 430.05 49.89 429.227 48.113 428.014 46.64 C 426.8 45.167 425.197 44.43 423.204 44.43 C 417.744 44.43 414.97 47.16 414.884 52.62 C 414.884 55.913 416.14 58.47 418.654 60.29 C 421.167 62.023 424.2 63.627 427.754 65.1 C 431.047 66.573 434.297 68.35 437.504 70.43 C 440.797 72.423 443.527 75.197 445.694 78.75 C 447.947 82.217 449.074 86.94 449.074 92.92 C 449.074 98.813 447.817 103.883 445.304 108.13 C 442.79 112.377 439.54 115.67 435.554 118.01 C 431.654 120.263 427.537 121.39 423.204 121.39 Z" fill="white"></path>
  <path d="M 368.842 120.87 L 364.422 120.87 C 360.696 120.87 357.186 120.047 353.892 118.4 C 352.939 117.793 352.332 116.97 352.072 115.93 L 351.942 115.15 C 351.942 114.37 352.202 113.633 352.722 112.94 L 359.222 104.23 C 360.002 103.277 360.956 102.8 362.082 102.8 L 362.992 102.93 C 363.252 103.017 363.469 103.06 363.642 103.06 C 363.902 103.06 364.162 103.06 364.422 103.06 L 368.842 103.06 C 370.316 103.06 371.572 102.54 372.612 101.5 C 373.739 100.373 374.302 99.117 374.302 97.73 L 374.302 30.78 C 374.302 29.827 374.649 29.003 375.342 28.31 C 376.036 27.617 376.859 27.27 377.812 27.27 L 388.472 27.27 C 389.426 27.27 390.249 27.617 390.942 28.31 C 391.636 29.003 391.982 29.827 391.982 30.78 L 391.982 97.73 C 391.982 104.057 389.729 109.517 385.222 114.11 C 380.716 118.617 375.256 120.87 368.842 120.87 Z" fill="white"></path>
  <path d="M 324.931 121.39 C 317.824 121.39 311.757 118.877 306.731 113.85 C 301.704 108.737 299.191 102.627 299.191 95.52 L 299.191 52.62 C 299.191 45.513 301.704 39.447 306.731 34.42 C 311.757 29.307 317.824 26.75 324.931 26.75 C 332.037 26.75 338.104 29.307 343.131 34.42 C 348.157 39.447 350.671 45.513 350.671 52.62 L 350.671 95.52 C 350.671 102.627 348.157 108.737 343.131 113.85 C 338.104 118.877 332.037 121.39 324.931 121.39 Z M 324.931 103.45 C 327.097 103.45 328.961 102.67 330.521 101.11 C 332.081 99.55 332.861 97.687 332.861 95.52 L 332.861 52.62 C 332.861 50.453 332.081 48.59 330.521 47.03 C 328.961 45.47 327.097 44.69 324.931 44.69 C 322.764 44.69 320.857 45.47 319.211 47.03 C 317.651 48.59 316.871 50.453 316.871 52.62 L 316.871 95.52 C 316.871 97.687 317.651 99.55 319.211 101.11 C 320.857 102.67 322.764 103.45 324.931 103.45 Z" fill="white"></path>
  <path d="M 290.328 120.87 L 279.928 120.87 C 279.062 120.87 278.238 120.523 277.458 119.83 C 276.765 119.223 276.418 118.487 276.418 117.62 L 276.418 105.01 C 276.418 102.497 275.378 100.503 273.298 99.03 L 263.418 92.27 L 260.948 92.27 L 260.948 117.23 C 260.948 118.183 260.558 119.05 259.778 119.83 C 259.085 120.523 258.262 120.87 257.308 120.87 L 246.778 120.87 C 245.738 120.87 244.872 120.523 244.178 119.83 C 243.485 119.05 243.138 118.183 243.138 117.23 L 243.138 30.91 C 243.138 29.87 243.485 29.003 244.178 28.31 C 244.872 27.617 245.738 27.27 246.778 27.27 L 269.918 27.27 C 276.592 27.27 282.225 29.61 286.818 34.29 C 291.498 38.883 293.838 44.517 293.838 51.19 L 293.838 68.35 C 293.838 75.11 291.195 81.047 285.908 86.16 L 289.158 88.37 C 290.632 89.41 291.758 90.84 292.538 92.66 C 293.405 94.393 293.838 96.127 293.838 97.86 L 293.838 98.25 C 293.925 104.49 293.968 110.817 293.968 117.23 C 293.968 118.183 293.578 119.05 292.798 119.83 C 292.105 120.523 291.282 120.87 290.328 120.87 Z M 269.918 74.46 C 271.652 74.46 273.125 73.853 274.338 72.64 C 275.552 71.427 276.158 69.997 276.158 68.35 L 276.158 51.19 C 276.158 49.543 275.552 48.113 274.338 46.9 C 273.125 45.687 271.652 45.08 269.918 45.08 L 260.948 45.08 L 260.948 74.46 L 269.918 74.46 Z" fill="white"></path>
  <path d="M 201.383 120.87 L 190.723 120.87 C 189.77 120.87 188.946 120.523 188.253 119.83 C 187.56 119.137 187.213 118.27 187.213 117.23 L 187.213 30.91 C 187.213 29.87 187.56 29.003 188.253 28.31 C 188.946 27.617 189.77 27.27 190.723 27.27 L 213.993 27.27 C 220.58 27.27 226.213 29.61 230.893 34.29 C 235.573 38.97 237.913 44.603 237.913 51.19 L 237.913 68.35 C 237.913 74.937 235.573 80.57 230.893 85.25 C 226.213 89.93 220.58 92.27 213.993 92.27 L 204.893 92.27 L 204.893 117.23 C 204.893 118.27 204.546 119.137 203.853 119.83 C 203.16 120.523 202.336 120.87 201.383 120.87 Z M 213.993 74.46 C 215.726 74.46 217.2 73.853 218.413 72.64 C 219.626 71.427 220.233 69.997 220.233 68.35 L 220.233 51.19 C 220.233 49.543 219.626 48.113 218.413 46.9 C 217.2 45.687 215.726 45.08 213.993 45.08 L 204.893 45.08 L 204.893 74.46 L 213.993 74.46 Z" fill="white"></path>
</svg>
