<svg xmlns="http://www.w3.org/2000/svg" viewBox="0 0 1400 875" width="1400" height="875">
  <defs>
    <filter id="shadow-sm" x="-5%" y="-5%" width="110%" height="120%">
      <feDropShadow dx="0" dy="1" stdDeviation="2" flood-color="#00000018"/>
    </filter>
    <filter id="shadow-md" x="-5%" y="-5%" width="110%" height="125%">
      <feDropShadow dx="0" dy="4" stdDeviation="8" flood-color="#00000014"/>
    </filter>
    <filter id="shadow-window" x="-2%" y="-2%" width="104%" height="106%">
      <feDropShadow dx="0" dy="8" stdDeviation="20" flood-color="#1a1a2e22"/>
    </filter>
    <clipPath id="window-clip">
      <rect x="40" y="24" width="1320" height="827" rx="12"/>
    </clipPath>
    <linearGradient id="sidebar-grad" x1="0" y1="0" x2="0" y2="1">
      <stop offset="0%" stop-color="#1e2640"/>
      <stop offset="100%" stop-color="#1a1a2e"/>
    </linearGradient>
    <linearGradient id="teal-grad" x1="0" y1="0" x2="1" y2="0">
      <stop offset="0%" stop-color="#0d9488"/>
      <stop offset="100%" stop-color="#14b8a6"/>
    </linearGradient>
  </defs>

  <!-- Page background -->
  <rect width="1400" height="875" fill="#e8edf2"/>

  <!-- Window shadow -->
  <rect x="40" y="24" width="1320" height="827" rx="12" fill="#1a1a2e" opacity="0.12" filter="url(#shadow-window)" transform="translate(0,6)"/>

  <!-- Window frame -->
  <rect x="40" y="24" width="1320" height="827" rx="12" fill="#f1f5f9" clip-path="url(#window-clip)"/>

  <!-- ── TITLE BAR ── -->
  <rect x="40" y="24" width="1320" height="44" rx="0" fill="#1a1a2e" clip-path="url(#window-clip)"/>
  <rect x="40" y="24" width="1320" height="44" rx="12" fill="#1a1a2e"/>
  <rect x="40" y="50" width="1320" height="18" fill="#1a1a2e"/>
  <!-- traffic lights -->
  <circle cx="72" cy="46" r="7" fill="#ff5f57"/>
  <circle cx="94" cy="46" r="7" fill="#febc2e"/>
  <circle cx="116" cy="46" r="7" fill="#28c840"/>
  <!-- app title -->
  <text x="148" y="52" font-family="Inter, -apple-system, sans-serif" font-size="14" font-weight="600" fill="#0d9488" letter-spacing="0.3">Projscope</text>
  <text x="230" y="52" font-family="Inter, -apple-system, sans-serif" font-size="14" font-weight="400" fill="#94a3b8" letter-spacing="0.3">Tasks</text>
  <!-- top-right icons -->
  <circle cx="1310" cy="46" r="14" fill="#ffffff10"/>
  <text x="1303" y="51" font-family="monospace" font-size="13" fill="#64748b">⋯</text>

  <!-- ── SIDEBAR ── -->
  <rect x="40" y="68" width="220" height="783" fill="url(#sidebar-grad)" clip-path="url(#window-clip)"/>

  <!-- Sidebar brand mark -->
  <rect x="64" y="90" width="36" height="36" rx="8" fill="url(#teal-grad)"/>
  <text x="74" y="114" font-family="monospace" font-size="16" font-weight="800" fill="white">PT</text>
  <text x="108" y="105" font-family="Inter, sans-serif" font-size="13" font-weight="600" fill="#f1f5f9">Projscope</text>
  <text x="108" y="120" font-family="Inter, sans-serif" font-size="11" fill="#64748b">Tasks</text>

  <!-- Sidebar nav items -->
  <!-- Active: Boards -->
  <rect x="52" y="148" width="196" height="36" rx="8" fill="#0d948820"/>
  <rect x="52" y="148" width="3" height="36" rx="2" fill="#0d9488"/>
  <text x="72" y="172" font-family="Inter, sans-serif" font-size="13" font-weight="600" fill="#0d9488">⊞  My Boards</text>

  <text x="72" y="210" font-family="Inter, sans-serif" font-size="13" fill="#475569">☰  All Tasks</text>
  <text x="72" y="242" font-family="Inter, sans-serif" font-size="13" fill="#475569">◷  Upcoming</text>
  <text x="72" y="274" font-family="Inter, sans-serif" font-size="13" fill="#475569">★  Starred</text>
  <text x="72" y="306" font-family="Inter, sans-serif" font-size="13" fill="#475569">⚙  Settings</text>

  <!-- Sidebar divider -->
  <line x1="64" y1="328" x2="236" y2="328" stroke="#ffffff12" stroke-width="1"/>

  <!-- Sidebar boards list -->
  <text x="64" y="350" font-family="Inter, sans-serif" font-size="10" font-weight="600" fill="#475569" letter-spacing="0.08em">BOARDS</text>
  <circle cx="72" cy="372" r="5" fill="#0d9488"/>
  <text x="84" y="376" font-family="Inter, sans-serif" font-size="12" fill="#cbd5e1">Product Roadmap</text>
  <circle cx="72" cy="396" r="5" fill="#8b5cf6"/>
  <text x="84" y="400" font-family="Inter, sans-serif" font-size="12" fill="#94a3b8">Design Sprint</text>
  <circle cx="72" cy="420" r="5" fill="#f59e0b"/>
  <text x="84" y="424" font-family="Inter, sans-serif" font-size="12" fill="#94a3b8">Bug Tracker</text>
  <circle cx="72" cy="444" r="5" fill="#ec4899"/>
  <text x="84" y="448" font-family="Inter, sans-serif" font-size="12" fill="#94a3b8">Marketing Q2</text>

  <!-- Sidebar bottom user -->
  <line x1="64" y1="820" x2="236" y2="820" stroke="#ffffff12" stroke-width="1"/>
  <circle cx="84" cy="838" r="14" fill="#0d9488"/>
  <text x="77" y="843" font-family="Inter, sans-serif" font-size="11" font-weight="700" fill="white">SV</text>
  <text x="104" y="834" font-family="Inter, sans-serif" font-size="12" font-weight="600" fill="#e2e8f0">Slava V.</text>
  <text x="104" y="848" font-family="Inter, sans-serif" font-size="10" fill="#64748b">Admin</text>

  <!-- ── MAIN AREA ── -->
  <rect x="260" y="68" width="1100" height="783" fill="#f1f5f9" clip-path="url(#window-clip)"/>

  <!-- Top toolbar -->
  <rect x="260" y="68" width="1100" height="60" fill="white" filter="url(#shadow-sm)"/>
  <text x="288" y="104" font-family="Inter, sans-serif" font-size="17" font-weight="700" fill="#1a1a2e">Product Roadmap</text>
  <!-- board toolbar chips -->
  <rect x="470" y="87" width="72" height="26" rx="13" fill="#f1f5f9"/>
  <text x="483" y="105" font-family="Inter, sans-serif" font-size="11" fill="#64748b">⊞ Board</text>
  <rect x="550" y="87" width="66" height="26" rx="13" fill="#f1f5f9"/>
  <text x="563" y="105" font-family="Inter, sans-serif" font-size="11" fill="#64748b">≡ List</text>
  <!-- right actions -->
  <rect x="1180" y="87" width="90" height="28" rx="6" fill="url(#teal-grad)"/>
  <text x="1198" y="106" font-family="Inter, sans-serif" font-size="12" font-weight="600" fill="white">+ Add Task</text>
  <rect x="1100" y="87" width="68" height="28" rx="6" fill="#f1f5f9"/>
  <text x="1112" y="106" font-family="Inter, sans-serif" font-size="12" fill="#64748b">▼ Filter</text>

  <!-- ── COLUMNS ── -->

  <!-- COLUMN 1: Backlog -->
  <rect x="280" y="148" width="238" height="36" rx="8" fill="#e2e8f0"/>
  <circle cx="300" cy="166" r="8" fill="#94a3b8"/>
  <text x="296" y="171" font-family="Inter, sans-serif" font-size="10" font-weight="700" fill="white">5</text>
  <text x="316" y="171" font-family="Inter, sans-serif" font-size="13" font-weight="600" fill="#475569">Backlog</text>

  <!-- card 1 -->
  <rect x="280" y="196" width="238" height="94" rx="8" fill="white" filter="url(#shadow-sm)"/>
  <rect x="280" y="196" width="238" height="4" rx="8" fill="#94a3b8"/>
  <text x="298" y="218" font-family="Inter, sans-serif" font-size="12" font-weight="600" fill="#1e293b">Implement search filter</text>
  <text x="298" y="236" font-family="Inter, sans-serif" font-size="11" fill="#94a3b8">Feature · Medium priority</text>
  <rect x="298" y="248" width="46" height="18" rx="9" fill="#e0f2fe"/>
  <text x="306" y="261" font-family="Inter, sans-serif" font-size="10" fill="#0284c7">Search</text>
  <rect x="352" y="248" width="38" height="18" rx="9" fill="#f0fdf4"/>
  <text x="360" y="261" font-family="Inter, sans-serif" font-size="10" fill="#16a34a">UI</text>
  <circle cx="491" cy="258" r="11" fill="#e2e8f0"/>
  <text x="487" y="262" font-family="Inter, sans-serif" font-size="9" fill="#64748b">AK</text>

  <!-- card 2 -->
  <rect x="280" y="300" width="238" height="80" rx="8" fill="white" filter="url(#shadow-sm)"/>
  <rect x="280" y="300" width="238" height="4" rx="8" fill="#94a3b8"/>
  <text x="298" y="322" font-family="Inter, sans-serif" font-size="12" font-weight="600" fill="#1e293b">CSV export functionality</text>
  <text x="298" y="340" font-family="Inter, sans-serif" font-size="11" fill="#94a3b8">Enhancement · Low priority</text>
  <rect x="298" y="352" width="50" height="18" rx="9" fill="#fef3c7"/>
  <text x="306" y="365" font-family="Inter, sans-serif" font-size="10" fill="#d97706">Export</text>

  <!-- card 3 -->
  <rect x="280" y="392" width="238" height="80" rx="8" fill="white" filter="url(#shadow-sm)"/>
  <rect x="280" y="392" width="238" height="4" rx="8" fill="#94a3b8"/>
  <text x="298" y="414" font-family="Inter, sans-serif" font-size="12" font-weight="600" fill="#1e293b">Onboarding wizard</text>
  <text x="298" y="432" font-family="Inter, sans-serif" font-size="11" fill="#94a3b8">Feature · High priority</text>
  <rect x="298" y="444" width="42" height="18" rx="9" fill="#fce7f3"/>
  <text x="306" y="457" font-family="Inter, sans-serif" font-size="10" fill="#db2777">UX</text>

  <!-- COLUMN 2: In Progress -->
  <rect x="540" y="148" width="238" height="36" rx="8" fill="#dbeafe"/>
  <circle cx="560" cy="166" r="8" fill="#3b82f6"/>
  <text x="557" y="171" font-family="Inter, sans-serif" font-size="10" font-weight="700" fill="white">3</text>
  <text x="576" y="171" font-family="Inter, sans-serif" font-size="13" font-weight="600" fill="#1d4ed8">In Progress</text>

  <!-- card 1 -->
  <rect x="540" y="196" width="238" height="108" rx="8" fill="white" filter="url(#shadow-sm)"/>
  <rect x="540" y="196" width="238" height="4" rx="8" fill="#3b82f6"/>
  <text x="558" y="218" font-family="Inter, sans-serif" font-size="12" font-weight="600" fill="#1e293b">Drag &amp; drop reordering</text>
  <text x="558" y="236" font-family="Inter, sans-serif" font-size="11" fill="#94a3b8">Feature · High priority</text>
  <!-- progress bar -->
  <rect x="558" y="248" width="180" height="6" rx="3" fill="#e2e8f0"/>
  <rect x="558" y="248" width="126" height="6" rx="3" fill="#3b82f6"/>
  <text x="558" y="270" font-family="Inter, sans-serif" font-size="10" fill="#64748b">70% complete</text>
  <rect x="558" y="282" width="46" height="18" rx="9" fill="#dbeafe"/>
  <text x="566" y="295" font-family="Inter, sans-serif" font-size="10" fill="#1d4ed8">Core</text>
  <circle cx="749" cy="292" r="11" fill="#e2e8f0"/>
  <text x="745" y="296" font-family="Inter, sans-serif" font-size="9" fill="#64748b">SV</text>

  <!-- card 2 -->
  <rect x="540" y="316" width="238" height="80" rx="8" fill="white" filter="url(#shadow-sm)"/>
  <rect x="540" y="316" width="238" height="4" rx="8" fill="#3b82f6"/>
  <text x="558" y="338" font-family="Inter, sans-serif" font-size="12" font-weight="600" fill="#1e293b">Dark mode polish</text>
  <text x="558" y="356" font-family="Inter, sans-serif" font-size="11" fill="#94a3b8">Enhancement · Medium</text>
  <rect x="558" y="368" width="54" height="18" rx="9" fill="#f3e8ff"/>
  <text x="566" y="381" font-family="Inter, sans-serif" font-size="10" fill="#7c3aed">Theme</text>

  <!-- card 3 -->
  <rect x="540" y="408" width="238" height="80" rx="8" fill="white" filter="url(#shadow-sm)"/>
  <rect x="540" y="408" width="238" height="4" rx="8" fill="#3b82f6"/>
  <text x="558" y="430" font-family="Inter, sans-serif" font-size="12" font-weight="600" fill="#1e293b">Keyboard shortcuts</text>
  <text x="558" y="448" font-family="Inter, sans-serif" font-size="11" fill="#94a3b8">Accessibility · Medium</text>
  <rect x="558" y="460" width="66" height="18" rx="9" fill="#f0fdf4"/>
  <text x="566" y="473" font-family="Inter, sans-serif" font-size="10" fill="#15803d">Accessibility</text>

  <!-- COLUMN 3: Review -->
  <rect x="800" y="148" width="238" height="36" rx="8" fill="#fef9c3"/>
  <circle cx="820" cy="166" r="8" fill="#f59e0b"/>
  <text x="817" y="171" font-family="Inter, sans-serif" font-size="10" font-weight="700" fill="white">2</text>
  <text x="836" y="171" font-family="Inter, sans-serif" font-size="13" font-weight="600" fill="#92400e">Review</text>

  <!-- card 1 -->
  <rect x="800" y="196" width="238" height="94" rx="8" fill="white" filter="url(#shadow-sm)"/>
  <rect x="800" y="196" width="238" height="4" rx="8" fill="#f59e0b"/>
  <text x="818" y="218" font-family="Inter, sans-serif" font-size="12" font-weight="600" fill="#1e293b">Board settings panel</text>
  <text x="818" y="236" font-family="Inter, sans-serif" font-size="11" fill="#94a3b8">Feature · High priority</text>
  <rect x="818" y="248" width="54" height="18" rx="9" fill="#fef3c7"/>
  <text x="826" y="261" font-family="Inter, sans-serif" font-size="10" fill="#d97706">Settings</text>
  <rect x="880" y="248" width="30" height="18" rx="9" fill="#f1f5f9"/>
  <text x="888" y="261" font-family="Inter, sans-serif" font-size="10" fill="#64748b">UI</text>
  <circle cx="1007" cy="258" r="11" fill="#0d9488"/>
  <text x="1001" y="262" font-family="Inter, sans-serif" font-size="9" font-weight="700" fill="white">SV</text>

  <!-- card 2 -->
  <rect x="800" y="302" width="238" height="80" rx="8" fill="white" filter="url(#shadow-sm)"/>
  <rect x="800" y="302" width="238" height="4" rx="8" fill="#f59e0b"/>
  <text x="818" y="324" font-family="Inter, sans-serif" font-size="12" font-weight="600" fill="#1e293b">LocalStorage migration</text>
  <text x="818" y="342" font-family="Inter, sans-serif" font-size="11" fill="#94a3b8">Architecture · Medium</text>
  <rect x="818" y="354" width="50" height="18" rx="9" fill="#e0f2fe"/>
  <text x="826" y="367" font-family="Inter, sans-serif" font-size="10" fill="#0284c7">Storage</text>

  <!-- COLUMN 4: Done -->
  <rect x="1060" y="148" width="238" height="36" rx="8" fill="#dcfce7"/>
  <circle cx="1080" cy="166" r="8" fill="#22c55e"/>
  <text x="1077" y="171" font-family="Inter, sans-serif" font-size="10" font-weight="700" fill="white">4</text>
  <text x="1096" y="171" font-family="Inter, sans-serif" font-size="13" font-weight="600" fill="#15803d">Done</text>

  <!-- card 1 (done - slightly muted) -->
  <rect x="1060" y="196" width="238" height="80" rx="8" fill="white" filter="url(#shadow-sm)" opacity="0.85"/>
  <rect x="1060" y="196" width="238" height="4" rx="8" fill="#22c55e"/>
  <text x="1078" y="218" font-family="Inter, sans-serif" font-size="12" font-weight="600" fill="#64748b" text-decoration="line-through">Initial Electron setup</text>
  <text x="1078" y="236" font-family="Inter, sans-serif" font-size="11" fill="#94a3b8">Foundation · Done</text>
  <rect x="1078" y="248" width="56" height="18" rx="9" fill="#dcfce7"/>
  <text x="1086" y="261" font-family="Inter, sans-serif" font-size="10" fill="#15803d">Infra</text>
  <text x="1232" y="261" font-family="Inter, sans-serif" font-size="16" fill="#22c55e">✓</text>

  <!-- card 2 (done) -->
  <rect x="1060" y="288" width="238" height="80" rx="8" fill="white" filter="url(#shadow-sm)" opacity="0.85"/>
  <rect x="1060" y="288" width="238" height="4" rx="8" fill="#22c55e"/>
  <text x="1078" y="310" font-family="Inter, sans-serif" font-size="12" font-weight="600" fill="#64748b" text-decoration="line-through">Add/edit/delete cards</text>
  <text x="1078" y="328" font-family="Inter, sans-serif" font-size="11" fill="#94a3b8">Core Feature · Done</text>
  <rect x="1078" y="340" width="42" height="18" rx="9" fill="#dcfce7"/>
  <text x="1086" y="353" font-family="Inter, sans-serif" font-size="10" fill="#15803d">Core</text>
  <text x="1232" y="353" font-family="Inter, sans-serif" font-size="16" fill="#22c55e">✓</text>

  <!-- card 3 (done) -->
  <rect x="1060" y="380" width="238" height="80" rx="8" fill="white" filter="url(#shadow-sm)" opacity="0.85"/>
  <rect x="1060" y="380" width="238" height="4" rx="8" fill="#22c55e"/>
  <text x="1078" y="402" font-family="Inter, sans-serif" font-size="12" font-weight="600" fill="#64748b" text-decoration="line-through">Column management</text>
  <text x="1078" y="420" font-family="Inter, sans-serif" font-size="11" fill="#94a3b8">Core Feature · Done</text>
  <rect x="1078" y="432" width="42" height="18" rx="9" fill="#dcfce7"/>
  <text x="1086" y="445" font-family="Inter, sans-serif" font-size="10" fill="#15803d">Core</text>
  <text x="1232" y="445" font-family="Inter, sans-serif" font-size="16" fill="#22c55e">✓</text>

  <!-- card 4 (done) -->
  <rect x="1060" y="472" width="238" height="80" rx="8" fill="white" filter="url(#shadow-sm)" opacity="0.85"/>
  <rect x="1060" y="472" width="238" height="4" rx="8" fill="#22c55e"/>
  <text x="1078" y="494" font-family="Inter, sans-serif" font-size="12" font-weight="600" fill="#64748b" text-decoration="line-through">Offline data persistence</text>
  <text x="1078" y="512" font-family="Inter, sans-serif" font-size="11" fill="#94a3b8">Architecture · Done</text>
  <rect x="1078" y="524" width="56" height="18" rx="9" fill="#dcfce7"/>
  <text x="1086" y="537" font-family="Inter, sans-serif" font-size="10" fill="#15803d">Storage</text>
  <text x="1232" y="537" font-family="Inter, sans-serif" font-size="16" fill="#22c55e">✓</text>

  <!-- ── STATUS BAR ── -->
  <rect x="260" y="811" width="1100" height="39" fill="#1a1a2e" clip-path="url(#window-clip)"/>
  <circle cx="290" cy="831" r="5" fill="#22c55e"/>
  <text x="302" y="836" font-family="Inter, sans-serif" font-size="11" fill="#64748b">Offline · All changes saved locally</text>
  <text x="1200" y="836" font-family="Inter, sans-serif" font-size="11" fill="#475569">14 tasks  ·  4 columns</text>

  <!-- Window border -->
  <rect x="40" y="24" width="1320" height="827" rx="12" fill="none" stroke="#00000012" stroke-width="1"/>
</svg>
